<svg viewBox="0 0 1280 1280" xmlns="http://www.w3.org/2000/svg" fill="none">
  <path d="M0,0c1.83,0,3.67,0,5.5-.01c3.81,0,7.62,0,11.42.02c4.83.01,9.65,0,14.47-.01c3.78-.01,7.56-.01,11.33,0c1.78,0,3.55,0,5.33-.01c18.08-.06,35.13,2.2,52.17,8.41.79.28,1.58.57,2.39.86C132.8,20.31,156.9,40.04,175.22,66.4c.73,1.04,1.47,2.08,2.23,3.15c6.41,9.33,10.81,19.26,14.77,29.85.26.69.51,1.38.78,2.08c7.62,20.9,7.7,42.47,7.69,64.44c0,3.13.01,6.26.01,9.39.02,7.41.03,14.82.02,22.23-.01,7.57.02,15.14.05,22.7.03,6.57.05,13.14.04,19.7c0,3.9,0,7.79.03,11.68.27,45.11-11.83,80.46-43.62,112.78-22.51,22.57-55.83,37.05-87.73,37.19-1.06.01-2.11.02-3.2.03-3.5.02-6.99.04-10.48.05-1.2.01-2.4.01-3.64.02-6.38.02-12.75.04-19.12.06-5.24.01-10.47.04-15.7.08-6.36.05-12.72.07-19.07.08-2.4.01-4.81.02-7.21.05-41.95.4-78.06-14.48-108.16-43.62-14.48-15-24.2-32.24-30.69-51.94-.29-.86-.58-1.72-.88-2.6-5.91-19.42-5.59-39.84-5.56-59.92.01-3.11,0-6.23-.01-9.34-.01-7.37-.01-14.73,0-22.1.01-7.53,0-15.06-.03-22.59-.02-6.53-.03-13.06-.02-19.59c0-3.87,0-7.74-.02-11.61-.17-42.44,10.17-80.01,40.39-111.13c1.04-1.04,2.08-2.08,3.13-3.12.55-.55,1.11-1.1,1.68-1.67c7.85-7.73,15.93-14.53,25.32-20.33.61-.38,1.23-.76,1.87-1.16C-72.26,15.36,-62.49,11,-51.78,7.4c1.06-.38,2.13-.76,3.23-1.15C-32.76,0.93,-16.53,-0.07,0,0Z" transform="translate(615.781 240.602)" fill="white"/>
  <path d="M0,0C21.02,26.04,22.49,63.93,22.47,95.52c0,3.13.01,6.26.02,9.4.01,7.4.02,14.81.01,22.22-.01,7.57.02,15.14.05,22.71.04,6.56.05,13.13.04,19.7c0,3.89.01,7.78.03,11.67C22.89,226.33,10.8,261.68,-21,294c-22.51,22.57-55.83,37.06-87.73,37.19-1.05.01-2.11.02-3.2.03-3.5.02-6.99.04-10.48.05-1.2.01-2.4.01-3.64.02-6.37.03-12.75.05-19.12.06-5.24.01-10.47.04-15.7.08-6.36.05-12.71.08-19.07.08-2.4.01-4.8.02-7.21.05-41.95.4-78.06-14.48-108.16-43.62-7.45-7.71-14.84-16.33-19.69-25.94.33-.66.66-1.32,1-2c.99.33,1.98.66,3,1c7.27-.46,13.98-2.15,21-4c1.76-.44,3.52-.88,5.29-1.32c11.82-2.97,23.31-6.34,34.71-10.68c1.77-.67,1.77-.67,3.58-1.35c3.15-1.2,6.29-2.42,9.42-3.65c1.31-.51,1.31-.51,2.64-1.02c4.33-1.7,8.58-3.52,12.8-5.48c3.68-1.7,7.35-3.17,11.18-4.5c4.5-1.57,8.45-3.57,12.5-6.05C-196,222,-196,222,-193,222c0-.66,0-1.32,0-2c.84-.46,1.67-.92,2.54-1.4c9.13-5.1,17.83-10.69,26.46-16.6.89-.61,1.79-1.21,2.71-1.84c6.96-4.79,13.64-9.95,20.29-15.16.95-.74,1.9-1.48,2.88-2.24c4.3-3.4,8.25-6.87,12.12-10.76c2.82-2.63,5.68-5.22,8.54-7.8c3.14-2.77,3.14-2.77,5.46-6.2-.91-1.68-1.83-3.36-2.82-5-7.7-13.01-10.37-26.11-7.06-41.12c3.79-13.29,11.77-23.73,23.87-30.53c3.82-1.71,7.69-3.01,11.7-4.23.71-.21,1.42-.43,2.16-.65c4.52-1.27,8.46-1.68,13.15-1.47.26-.59.52-1.18.79-1.78c1.28-2.35,2.62-3.86,4.52-5.73.68-.67,1.35-1.33,2.05-2.02c1.09-1.07,1.09-1.07,2.21-2.17.76-.74,1.51-1.49,2.29-2.26c3.22-3.19,6.46-6.37,9.69-9.55C-37.07,39.33,-37.07,39.33,-26,26c1.5-1.73,3.02-3.44,4.56-5.12c2.71-2.97,5.38-5.96,8-9C-3.07,0,-3.07,0,0,0Z" transform="translate(794 311)" fill="white"/>
  <path d="M0,0c1.1-.01,1.1-.01,2.23-.02c1.56-.01,3.12-.01,4.68-.02c2.34-.01,4.67-.04,7.01-.07c18.02-.13,36.07,2.35,49.56,15.31C76.86,29.46,79.97,46.72,79.91,65.66c.01,1.45.01,2.89.02,4.34.01,3,.01,6,0,9.01-.01,3.8.01,7.6.03,11.4.02,2.97.02,5.95.02,8.92c0,1.4,0,2.8.02,4.2.11,14.84-2.06,31.75-12.72,42.99-1.41,1.42-2.86,2.8-4.36,4.12-3.06,5.45-.64,12.15.91,17.88.56,1.89,1.13,3.79,1.71,5.68.31,1.02.61,2.05.93,3.1c1.69,5.65,3.44,11.29,5.18,16.93.36,1.15.72,2.31,1.08,3.5.69,2.22,1.39,4.44,2.08,6.65.32,1.03.64,2.05.97,3.1.28.89.56,1.78.85,2.7c2.31,8.23,3.17,15.71,3.19,24.28.01,1.73.01,1.73.02,3.49.01,2.41.01,4.83.01,7.25.01,3.69.04,7.38.08,11.08.01,2.35.01,4.71.01,7.06.02,1.1.03,2.2.04,3.33-.03,6.15-.32,9.89-4.5,14.53-3.44,2.2-6.65,2.38-10.68,1.74-6.85-2.18-13.43-6.69-17.32-12.74-3.45-7.6-3.26-15.3-3.19-23.48.04-14.71-2.23-26.74-7.67-40.49-2.11-5.61-3.75-11.36-5.45-17.09-1.93-6.48-3.86-12.79-6.69-18.94-1.08.22-1.08.22-2.19.44-2.6.52-5.21,1.04-7.81,1.56.01,1.01.01,2.01.02,3.04.06,9.47.11,18.93.14,28.39.01,4.86.03,9.73.07,14.59.03,4.69.05,9.39.06,14.08c0,1.79.01,3.58.03,5.37.02,2.51.02,5.02.02,7.53.01.74.02,1.48.03,2.24-.02,4.44-.66,7.22-3.37,10.76-3.36,2.78-6.37,3.59-10.75,3.42-6.15-1.15-12.98-4.89-17.25-9.42-2.78-6.12-3.46-11.22-3.51-17.9-.01-.99-.03-1.97-.05-2.99-.06-3.35-.09-6.7-.12-10.04-.03-2.45-.07-4.9-.1-7.35-.44-35.3-.37-70.6-.35-105.9.01-7.94,0-15.87,0-23.8-.01-7.75-.01-15.51,0-23.27c0-4.59,0-9.17-.01-13.76c0-4.27,0-8.54.01-12.81c0-1.55,0-3.11,0-4.67-.03-19.96-.03-19.96,2.84-23.78.69-.55,1.39-1.1,2.1-1.66.69-.57,1.38-1.14,2.09-1.72C-9.37,-0.17,-4.93,0.03,0,0Z" transform="translate(1013.52 707.797)" fill="white"/>
  <path d="M0,0c11.06-.46,21.55,2.98,30.52,9.34.99.92.99.92,2,1.87c0,.66,0,1.32,0,2c.99.33,1.98.66,3,1c1.6,2.1,3.03,4.15,4.44,6.38.6.94.6.94,1.21,1.9c5.83,9.45,8.46,18.71,8.5,29.82c0,.69,0,1.39.01,2.1.01,2.3.01,4.61.02,6.91c0,1.66.01,3.32.02,4.98.02,5.43.03,10.86.04,16.3c0,1.87.01,3.75.01,5.62.02,8.81.03,17.62.04,26.43.01,10.16.04,20.31.08,30.46.03,7.86.04,15.72.05,23.57c0,4.69.01,9.38.03,14.07.03,4.41.03,8.82.02,13.24c0,1.61.01,3.22.02,4.84.1,12.79-1.51,23.63-10.49,33.38-7.99,7.78-15.84,11.4-27.19,11.31-.74,0-1.49-.01-2.25-.01-11.24-.25-20-3.49-29.56-9.3-1.22-.71-1.22-.71-2.47-1.43-4.1-2.43-4.1-2.43-5.53-3.57c0-.66,0-1.32,0-2-.59-.24-1.18-.49-1.79-.74-4.12-2.34-6.48-6.47-9.21-10.26-.47-.62-.94-1.24-1.42-1.88-7.52-10.75-8.74-24.61-8.71-37.37c0-.89,0-1.78-.01-2.7c0-2.94,0-5.89.01-8.83c0-2.1,0-4.2-.01-6.29c0-4.42,0-8.83.01-13.25c0-4.42,0-8.85,0-13.28-.02-14.04.02-28.09.11-42.14.02-3.29.03-6.59.04-9.88.02-5.38.07-10.76.14-16.14.02-1.99.04-3.99.04-5.99.05-15.47,1.49-29.86,11.8-42.25.62-.76,1.25-1.51,1.89-2.3C-25.34,5.7,-13.5,1.15,0,0Z" transform="translate(923.48 706.789)" fill="white"/>
  <path d="M0,0C4.28,4.59,5.74,8.66,5.7,14.95c.02,1.14.02,1.14.05,2.31.04,2.51.05,5.02.05,7.53.03,1.79.05,3.59.08,5.38.06,4.68.09,9.37.11,14.05.01,2.68.03,5.35.05,8.02.07,10.5.1,20.99.1,31.49c0,5.74.01,11.48.03,17.22c0,.98,0,1.96.01,2.97c0,2,.01,4,.01,6c.04,13.28.06,26.57.06,39.86c0,9.07.01,18.14.05,27.21.02,4.78.03,9.55.02,14.32-.01,4.45,0,8.9.03,13.36c0,1.63,0,3.26-.01,4.89-.01,2.22,0,4.44.03,6.67c0,1.24,0,2.48,0,3.76.33,3.19.33,3.19,3.03,4.9c4.05,1.73,7.3,2.09,11.6,1.11c7.22-4.15,11.43-11.28,14-19c.1-2.63.14-5.24.13-7.88c0-.81.01-1.62.01-2.45c0-2.73,0-5.46,0-8.18c0-1.95.01-3.91.01-5.86.01-4.2.02-8.41.02-12.62c0-6.65.02-13.3.04-19.95.01-2.28.01-4.55.02-6.83c0-1.14.01-2.28.01-3.45.04-15.49.07-30.98.09-46.47c0-10.44.03-20.89.07-31.33.02-5.53.03-11.06.02-16.58c0-5.2.01-10.4.04-15.6.01-1.91.01-3.82,0-5.73-.01-2.6.01-5.21.03-7.81-.01-1.14-.01-1.14-.03-2.29C35.54,8.84,36.79,5.96,40,2c5.07-4.57,10.38-5.22,17-5c4.63.74,7.84,2.33,10.69,6.1c2.77,4.09,3.01,7.48,2.94,12.32.01.82.01,1.65.02,2.49.02,2.74,0,5.48-.02,8.22.01,1.97.01,3.94.02,5.91.02,5.34.01,10.69-.01,16.03-.02,5.6-.01,11.21,0,16.81c0,9.41-.02,18.82-.04,28.24-.04,10.86-.04,21.72-.02,32.58.02,10.47.01,20.93-.01,31.4c0,4.44,0,8.89.01,13.33c0,5.24-.01,10.49-.04,15.73c0,1.92,0,3.84,0,5.75.04,10.74-.55,19.95-4.54,30.09-.39,1.06-.78,2.11-1.18,3.2C60.35,237.14,52.87,246.96,44,256c-1.03,1.07-1.03,1.07-2.08,2.15-10.75,10.37-24.32,15.41-39.13,15.16-9.36-.76-17.16-4.67-23.79-11.31-9.23-12.48-8.57-28.25-8.47-43.07c0-2.07,0-4.14-.01-6.21c0-5.57.02-11.15.04-16.73.02-5.86.02-11.73.02-17.6.01-9.85.03-19.7.06-29.56.04-12.59.06-25.19.07-37.78.01-10.89.03-21.78.05-32.67c0-2.32,0-4.65.01-6.97.01-6.63.02-13.26.04-19.89.01-2,.01-3.99.02-5.99.01-6.18.06-12.35.17-18.53.02-1.32.02-1.32.04-2.67.05-2.6.13-5.2.22-7.8.01-.77.03-1.54.04-2.34.22-5.12,1.36-8.11,4.7-12.19c7.3-5.63,16.01-7.51,24-2Z" transform="translate(215 711)" fill="white"/>
  <path d="M0,0c.66,0,1.32,0,2,0C23.02,26.04,24.49,63.93,24.47,95.52c0,3.13.01,6.26.02,9.4.01,7.4.02,14.81.01,22.22-.01,7.57.02,15.14.05,22.71.04,6.56.05,13.13.04,19.7c0,3.89.01,7.78.03,11.67C24.89,226.33,12.8,261.68,-19,294c-22.51,22.58-55.87,37.09-87.77,37.18-1.07,0-2.13.01-3.23.02-3.5.02-7.01.03-10.52.04-1.2,0-2.41.01-3.65.01-6.39.02-12.78.04-19.17.05-6.55.01-13.1.04-19.65.08-5.08.03-10.16.03-15.24.04-2.41,0-4.82.01-7.23.03-14.39.11-27.6-.75-41.54-4.45.33-.99.66-1.98,1-3c2.42-.73,4.71-1.27,7.19-1.75c6.91-1.48,13.59-3.36,20.31-5.56c6.45-2.11,12.9-4.11,19.46-5.86c30.78-8.25,61.86-17.98,91.04-30.83.79-.34,1.58-.68,2.4-1.03c29.82-12.84,55.31-34.99,68.6-64.97c3.03-8.12,4.17-16.08,4.08-24.75c0-.75,0-1.49,0-2.27-.01-2.49-.03-4.98-.05-7.47-.01-1.8-.02-3.59-.02-5.39-.01-2.86-.03-5.73-.04-8.59-.04-7.1-.05-14.2-.06-21.3c0-1.03,0-2.07,0-3.13c0-4.26,0-8.51-.01-12.77c0-12.07-.02-24.13-.1-36.2-.06-9.59-.09-19.19-.06-28.78.01-5.08,0-10.15-.06-15.22-.05-4.77-.05-9.55-.01-14.32c0-1.75-.01-3.49-.05-5.24-.17-9.3.23-15.7,6.9-22.64C-4.7,4.21,-2.89,2.6,-1,1c.33-.33.66-.66,1-1Z" transform="translate(792 311)" fill="white"/>
  <path d="M0,0c.98-.03,1.96-.06,2.97-.09c5.92-.05,9.57.28,14.15,4.4c6.92,7.73,12.41,16.96,18.11,25.61.47.71.94,1.42,1.43,2.16c1.04,1.58,2.07,3.16,3.09,4.75.8,1.22.8,1.22,1.61,2.47.48.74.97,1.49,1.46,2.26c1.2,1.89,1.2,1.89,3.3,2.75c0,.66,0,1.32,0,2c1,0,1.99,0,3,0c.28-.73.55-1.47.82-2.22c1.14-2.68,2.41-4.78,4.09-7.15.58-.81,1.15-1.63,1.74-2.47.61-.86,1.22-1.71,1.85-2.59.63-.89,1.26-1.78,1.91-2.69c1.26-1.79,2.53-3.57,3.81-5.36c1.58-2.23,3.16-4.48,4.72-6.73.86-1.22,1.71-2.44,2.56-3.66.74-1.05,1.47-2.1,2.22-3.18C79.3,1.92,79.3,1.92,84.12,0.31c4.13-.26,8.25-.23,12.38-.25c1.71-.03,1.71-.03,3.45-.06c1.64-.01,1.64-.01,3.32-.02c1.01,0,2.01-.01,3.04-.02c4.35.55,6.96,2.29,9.69,5.66c1.46,3.49,1.04,5.03.12,8.69-1.22,2.69-2.69,5.21-4.18,7.75-.92,1.61-1.83,3.21-2.74,4.82-.5.87-.99,1.74-1.5,2.63-2.88,5.12-5.62,10.31-8.39,15.49-5,9.33-10.12,18.57-15.36,27.77-5.55,9.77-10.88,19.66-16.22,29.56-2.67,4.96-5.35,9.91-8.04,14.86-.47.87-.95,1.74-1.43,2.64-3.22,5.93-6.62,11.73-10.14,17.48-4-1.49-5.22-3.59-7.21-7.29-.6-1.09-1.19-2.19-1.81-3.32-.64-1.19-1.28-2.38-1.91-3.58-.67-1.22-1.33-2.43-1.99-3.65-1.37-2.5-2.72-5-4.08-7.49-2.96-5.45-6-10.84-9.06-16.23-.51-.91-1.02-1.81-1.55-2.75-.49-.87-.98-1.73-1.48-2.63-.42-.74-.84-1.48-1.27-2.24-1.55-2.68-3.14-5.34-4.74-7.99-.54-.91-1.08-1.81-1.64-2.74-.62-1.03-.62-1.03-1.26-2.09c0,.63,0,1.26,0,1.91-.06,15.3-.14,30.59-.23,45.89-.05,7.4-.09,14.8-.11,22.2-.02,6.45-.06,12.9-.1,19.35-.03,3.41-.05,6.82-.05,10.24-.01,3.81-.04,7.63-.07,11.44c0,1.13,0,2.26,0,3.42-.07,6.37-.41,11.31-4.97,16.2-3.87,2.96-6.33,4.81-11.32,4.78-5.27-1.05-10.39-4.68-14.15-8.43-1.39-3.72-1.14-7.66-1.13-11.58c0-.77,0-1.54-.01-2.33c0-2.57,0-5.15,0-7.72c0-1.84-.01-3.69-.01-5.53-.01-5.02-.01-10.03-.01-15.04c0-4.18-.01-8.37-.01-12.55-.01-9.86-.01-19.73-.01-29.6c0-10.18-.01-20.36-.03-30.54-.01-8.74-.01-17.48-.01-26.22c0-5.22-.01-10.44-.02-15.66-.01-4.91-.01-9.82,0-14.73c0-1.8,0-3.61-.01-5.41c0-2.46,0-4.92.01-7.38-.01-.71-.01-1.42-.02-2.16.03-3.95.42-7.03,2.26-10.55C-13.82,-0.42,-7.94,0.08,0,0Z" transform="translate(582.875 707.688)" fill="white"/>
  <path d="M0,0c.66,0,1.32,0,2,0C8.93,23.39,14.28,47.11,19.69,70.88c2.41,10.59,4.88,21.16,7.37,31.73c4.27,18.17,8.5,36.34,12.6,54.54c1.01,4.44,2.06,8.87,3.13,13.3c2.44,10.23,4.67,20.34,5.4,30.86.06.8.13,1.6.2,2.43.16,4.09-.17,6.5-2.78,9.74-2.94,2.84-3.67,3.42-7.67,3.83C33,216.92,29.22,215.56,25,213c-.83-.46-.83-.46-1.69-.92-7.18-4.81-7.97-13.32-9.69-21.2-.34-1.49-.68-2.97-1.03-4.45-.63-2.71-1.25-5.42-1.85-8.13-.55-2.44-1.13-4.87-1.74-7.3-14.52,0-29.04,0-44,0-.99,2.97-1.98,5.94-3,9-1.23,3.42-2.55,6.8-3.88,10.19-.32.86-.65,1.72-.98,2.61-2.06,5.23-4.16,9.19-8.14,13.2-5.03,1.68-9.65,2.15-14.52-.23-7.7-5.03-7.7-5.03-9.1-9.96-1.53-11.44,1.49-21.13,5.76-31.65c1.02-2.57,2.02-5.14,3.01-7.72.78-2.02,1.57-4.04,2.35-6.06.37-.96.73-1.91,1.11-2.89c2.25-5.77,4.69-11.39,7.28-17.01c1.38-3.08,2.52-6.22,3.61-9.42c1.83-5.37,3.94-10.57,6.14-15.8c1.37-3.28,2.71-6.58,4.04-9.88.46-1.12.91-2.24,1.38-3.4.92-2.27,1.83-4.55,2.75-6.83c2.29-5.66,4.67-11.25,7.26-16.78c2.74-5.87,5.13-11.82,7.43-17.87c2.85-7.4,5.82-14.65,9.25-21.81c1.15-2.47,2.16-4.95,3.13-7.5C-7.29,13.89,-3.56,6.97,0,0Z" transform="translate(740 709)" fill="white"/>
  <path d="M0,0C4.88,2.95,6.82,7.02,9.31,12c.11,2.46.16,4.88.16,7.34.01,1.15.01,1.15.02,2.32.01,2.58.02,5.15.03,7.73.01,1.85.02,3.69.03,5.53.02,5.02.05,10.03.07,15.04.02,5.24.05,10.48.07,15.71.05,9.92.1,19.84.14,29.76.05,11.29.1,22.58.16,33.87.11,23.24.22,46.47.32,69.7c4.04.03,7.78.02,11.73-.83.85-.18,1.71-.36,2.59-.54c1.36-.3,1.36-.3,2.75-.6c1.42-.3,1.42-.3,2.87-.6c3.03-.64,6.04-1.28,9.06-1.93c3.98-.85,7.96-1.69,11.94-2.53c1.36-.3,1.36-.3,2.74-.6c5.51-1.15,10.94-2.24,16.51-.81c3.6,2.85,5.51,6.51,6.22,10.98.17,2.85.19,5.67.16,8.52.03,1.45.03,1.45.07,2.93-.01,4.47-.34,7.42-2.36,11.44-9.03,8.73-29.57,9.58-41.34,12.07-2.23.48-4.46.96-6.69,1.43-5.39,1.16-10.79,2.3-16.19,3.42-2.97.63-5.93,1.27-8.89,1.92-1.78.38-3.57.76-5.35,1.14-.8.17-1.59.35-2.41.54-5.81,1.21-10.68,1.56-16.07-1.43-3.44-3.71-3.03-6.83-2.97-11.73c0-.94-.01-1.89-.02-2.86-.01-3.16,0-6.33.02-9.49c0-2.27-.01-4.54-.02-6.8-.02-6.17-.01-12.33.01-18.49.02-6.45.01-12.89.01-19.34-.01-10.82.01-21.65.04-32.48.02-11.13.03-22.27.02-33.4-.02-13.42-.02-26.84,0-40.26.01-5.13,0-10.25,0-15.38-.01-6.03,0-12.07.03-18.11.01-2.21.01-4.43,0-6.64-.01-3.03.01-6.05.03-9.08-.01-.87-.02-1.75-.03-2.66.08-5.41.92-8.52,4.54-12.8C-13.93,-1.1,-8.1,-2.2,0,0Z" transform="translate(334.688 709)" fill="white"/>
  <path d="M0,0C1.47,0,1.47,0,2.97,0c2.07,0,4.14.01,6.22.02c3.09.02,6.18.03,9.27.02c5.07.01,10.14.06,15.21.14c2.05.04,4.1.06,6.16.08c3.01.03,6.02.1,9.03.17.9,0,1.81.01,2.74.01c4.23.15,7.21.42,10.6,3.09c5.42,5.83,4.88,10.89,4.89,18.58.02,1.07.04,2.15.07,3.26.02,6.26-.15,10.16-4.45,14.86-4.57,4.14-9.9,4.22-15.79,4.1-.7-.01-1.39-.01-2.11-.02-1.7-.02-3.4-.05-5.1-.08c0,.85.01,1.71.01,2.59.09,20.77.16,41.54.2,62.32.02,10.04.05,20.09.09,30.14.04,8.75.07,17.51.08,26.27c0,4.64.01,9.27.04,13.91.03,4.36.04,8.73.03,13.1c0,1.6.01,3.2.03,4.8.15,17.07.15,17.07-5.96,23.41-4.53,4.01-8.33,4.82-14.17,4.74-4.95-.59-8.19-3.15-11.72-6.59-3.01-4.98-2.75-10.75-2.74-16.44c0-.65,0-1.29,0-1.95c0-2.13,.01-4.26,.01-6.4c.01-1.53,.01-3.07,.01-4.6c0-3.3,.01-6.6,.02-9.9c.01-5.22,.02-10.44,.02-15.66c.01-12.02,.03-24.04,.06-36.06c.02-11.03,.03-22.05,.04-33.07c.01-5.18,.02-10.37,.03-15.55c.01-3.23,.01-6.46,.02-9.69c0-1.49,0-2.99,.01-4.48c0-2.05,0-4.09,0-6.13c.01-1.15,.01-2.29,.01-3.47-.13-3.49-.57-6.84-1.12-10.29-.92-.04-1.83-.07-2.78-.11-10.21-.55-17.7-1.56-25.22-8.89-1.51-4.55-1.22-9.05-1.25-13.81-.02-.99-.04-1.97-.06-2.99-.04-6.44,.82-10.54,4.5-15.95C-14.37,-0.47,-6.67,-0.05,0,0Z" transform="translate(424.289 707.77)" fill="white"/>
  <path d="M0,0c.71-.01,1.43-.02,2.16-.02c2.37-.03,4.73-.05,7.09-.06.81-.01,1.62-.01,2.45-.02c4.27-.02,8.54-.04,12.81-.06c3.54-.01,7.07-.04,10.61-.08c4.27-.05,8.54-.07,12.81-.08c1.62-.01,3.25-.02,4.87-.05c2.28-.03,4.56-.03,6.83-.02c1.94-.01,1.94-.01,3.93-.03c4.25.77,5.68,2.32,8.39,5.61c3.19,4.87,2.44,10.69,2.5,16.32.04,1.11.08,2.23.12,3.38.06,6.35-.34,10.36-4.84,15.02-4.77,3.42-9.4,3.54-15.1,3.41-.74-.01-1.48-.02-2.24-.03-1.82-.02-3.63-.06-5.44-.1c0,.95,0,1.9,0,2.87.07,29.05.07,58.09,0,87.13-.01,1.02-.01,2.03-.01,3.08-.03,12.45-.1,24.9-.2,37.35-.03,3.54-.05,7.09-.06,10.63-.02,4.17-.05,8.33-.1,12.49-.02,1.52-.03,3.04-.03,4.56c0,2.07-.03,4.14-.06,6.2-.01,1.74-.01,1.74-.03,3.5-.78,4.86-3.04,8.06-6.9,11.03-4.81,2.14-9.48,1.96-14.61,1.16-5-2.06-8.15-4.3-10.59-9.18-1.53-3.7-1.8-6.94-1.81-10.96-.01-.68-.02-1.37-.02-2.07-.02-2.28-.02-4.55-.02-6.82-.01-1.64-.02-3.27-.03-4.91-.02-4.43-.03-8.86-.04-13.29-.01-4.63-.04-9.26-.06-13.9-.04-8.77-.07-17.54-.1-26.3-.02-9.99-.07-19.98-.11-29.96-.09-20.54-.17-41.07-.22-61.61-1.56-.08-1.56-.08-3.14-.17-1.37-.08-2.74-.17-4.11-.25-.68-.04-1.36-.07-2.07-.11-8.07-.5-12.81-3.01-18.68-8.47-2.05-4.08-1.23-9.32-1.25-13.81-.02-1.09-.05-2.19-.07-3.31c0-1.06-.01-2.12-.01-3.21-.01-.97-.02-1.93-.03-2.93.54-4.12,2.26-6.77,5.36-9.49C-8.07,-0.05,-4.6,0.05,0,0Z" transform="translate(790.054 708.807)" fill="white"/>
  <path d="M0,0C4.46,4.25,6.78,8.98,7.11,15.17c.02,1.73.01,3.47-.02,5.2.01.96.01,1.91.01,2.89c0,3.13-.02,6.26-.05,9.39c0,2.18-.01,4.36-.01,6.54-.01,4.56-.03,9.12-.06,13.67-.04,5.86-.06,11.71-.07,17.56-.01,5.57-.03,11.15-.05,16.73c0,1.07,0,2.13-.01,3.23-.01,3.01-.03,6.02-.05,9.02c0,.9,0,1.8-.01,2.72-.05,6.15-.05,6.15-1.17,8.38-.06,1.66-.05,3.32-.02,4.97.02,1.04.04,2.08.06,3.15.03,1.14.06,2.27.09,3.44.02,1.17.04,2.34.07,3.55.07,3.78.16,7.55.24,11.33.11,4.91.21,9.83.31,14.74.03,1.2.05,2.39.08,3.63.19,9.73.25,19.46.17,29.19c0,.99-.01,1.99-.01,3.01-.19,17.14-.19,17.14-5.99,22.99-4.06,3.7-8.14,4.47-13.51,4.41-4.53-.75-8.22-3.23-11.49-6.41-2.19-4.23-2.28-8.22-2.26-12.88-.01-.79-.01-1.58-.02-2.39-.01-2.63-.01-5.27-.01-7.9c0-1.89-.01-3.79-.02-5.68-.01-5.13-.02-10.26-.02-15.4c0-4.29-.01-8.57-.02-12.86-.01-10.11-.02-20.23-.02-30.34.01-10.43-.02-20.87-.05-31.3-.02-8.96-.03-17.91-.03-26.87c0-5.35-.01-10.7-.03-16.05-.02-5.03-.02-10.06,0-15.09c0-1.85-.01-3.69-.02-5.54-.01-2.52,0-5.04.01-7.56-.01-.73-.02-1.46-.03-2.21.07-5.48,1.49-8.52,4.52-12.93C-15.58,-1.77,-8.05,-3.58,0,0Z" transform="translate(531.375 709.5)" fill="white"/>
  <path d="M0,0c1.78-.01,1.78-.01,3.59-.02c3.24-.01,6.48-.01,9.72-.01c2.71,0,5.42,0,8.13-.01c6.4-.01,12.8-.01,19.2,0c6.59.01,13.17-.01,19.75-.03c5.67-.02,11.34-.02,17.01-.02c3.38,0,6.76,0,10.14-.01c3.77-.02,7.54-.01,11.32,0c1.1-.01,2.21-.01,3.35-.02c8.41.06,15.72,1.35,22.6,6.46.83.61,1.67,1.22,2.52,1.85c2.48,1.9,4.94,3.82,7.4,5.74c6.82,5.33,13.89,9.9,21.33,14.34c3.68,2.32,7.34,4.66,11,7-3.72,1.18-7.23,1.12-11.11,1.11-.72,0-1.43,0-2.17,0-2.4,0-4.81-.01-7.21-.02-1.72,0-3.44-.01-5.16-.01-4.68-.01-9.36-.03-14.03-.04-2.93-.02-5.85-.03-8.77-.04-9.15-.03-18.3-.07-27.45-.11-10.56-.05-21.12-.09-31.67-.11-8.17-.01-16.33-.05-24.49-.09-4.88-.02-9.75-.04-14.62-.05-4.59,0-9.18-.02-13.76-.06-1.68-.01-3.36-.01-5.04-.01-10.11.02-17.07-.41-25.4-6.75-3.25-4.31-4.26-8.55-4.04-13.93.87-4.95,3.29-7.93,6.77-11.44C-14.75,-0.55,-7.34,-0.02,0,0Z" transform="translate(334.943 627.725)" fill="white"/>
  <path d="M0,0c1.19-.01,2.38-.01,3.6-.02c3.25-.01,6.5-.01,9.74-.01c2.72,0,5.43,0,8.15-.01c6.41-.01,12.82-.01,19.23,0c6.6.01,13.2-.01,19.8-.03c5.68-.02,11.36-.02,17.04-.02c3.39,0,6.77,0,10.16-.01c3.78-.02,7.55-.01,11.33,0c1.11-.01,2.23-.01,3.38-.02c6.78.05,12.5.32,17.56,5.34c3.36,5.18,5.71,9.75,5.04,16.05-1.9,6.23-5.28,9.64-10.71,13.09-3.21,1.28-5.99,1.16-9.44,1.16-1.08,0-1.08,0-2.18,0-2.41,0-4.82-.01-7.24-.02-1.73,0-3.46,0-5.19,0-4.69,0-9.39-.01-14.09-.02-4.91-.02-9.83-.02-14.74-.02-9.31,0-18.61-.02-27.92-.04-10.58-.02-21.17-.03-31.75-.04-20.88-.02-41.76-.06-62.64-.1-2.03,0-4.07-.01-6.1-.01c2.66-3.09,5.87-4.69,9.43-6.62c7-3.88,13.24-8.47,19.57-13.38C-24.95,5.56,-16.51,-0.04,0,0Z" transform="translate(844.975 627.725)" fill="white"/>
  <path d="M0,0C9.45,0,17.56,7.07,24.24,13.21C39.62,28.86,48.15,50.28,48.38,72.06c-.32,22.23-9.74,43.97-25.54,59.58C16.42,137.72,9.04,143.25,1,147c-2-2-2-2-2.25-4.49c0-1.06,0-2.12,0-3.21c0-1.21-.01-2.43-.01-3.68.01-1.35.01-2.7.02-4.05c0-1.42-.01-2.83-.01-4.25c0-3.86,0-7.71.01-11.57.01-4.03.01-8.05.01-12.08c0-6.76.01-13.53.02-20.29.02-7.83.03-15.66.02-23.49c0-7.52.01-15.04.02-22.56c0-3.2,0-6.41,0-9.62c0-3.77.01-7.54.02-11.31c0-1.39,0-2.78,0-4.17c0-1.88.01-3.77.02-5.66c0-1.05,0-2.11,0-3.2C-1,1,-1,1,0,0Z" transform="translate(849 373)" fill="white"/>
  <path d="M0,0c.95,17.69,1.07,35.32.88,53.03-.03,2.7-.05,5.4-.07,8.1-.06,6.31-.12,12.62-.18,18.94-.08,7.2-.14,14.4-.21,21.6C0.29,116.45,0.15,131.22,0,146c-16.6-5.28-31.61-21.52-39.78-36.5-9.11-18.72-10.48-42.93-4.62-62.78c3.6-9.56,8.09-18.65,14.4-26.72.66,0,1.32,0,2,0c.24-.57.48-1.14.73-1.73C-22.58,9.9,-9.69,0,0,0Z" transform="translate(429 373)" fill="white"/>
  <path d="M0,0C2.52,0,5.04,0,7.56,0c5.26-.01,10.52.01,15.78.03c6.07.03,12.13.03,18.2.02c5.86-.01,11.73-.01,17.59.01c2.49,0,4.97,0,7.45,0c3.47-.01,6.94.01,10.41.03c1.02,0,2.04-.01,3.09-.01c5.75.06,9.9.6,14.96,3.42c3.54,4.09,5,7.57,5,13-1.29,4.51-2.95,7.17-6.67,10.09-5.89,3.25-12.73,2.43-19.26,2.36-1.52,0-3.04,0-4.56,0-4.1,0-8.21-.02-12.32-.05-4.3-.02-8.59-.03-12.89-.03-8.13-.01-16.26-.05-24.39-.09-9.26-.04-18.52-.06-27.78-.08-19.05-.04-38.09-.11-57.13-.2c1.12-3.38,2.07-4.16,4.75-6.38c2.33-1.95,4.53-3.91,6.67-6.07c2.58-2.56,5.22-4.86,8.08-7.12.92-.74,1.83-1.48,2.78-2.25C-29.86,-1.55,-14.57,-0.07,0,0Z" transform="translate(925.961 549.504)" fill="white"/>
  <path d="M0,0c1.63-.01,1.63-.01,3.29-.02c3.59-.01,7.17-.01,10.75-.01c2.5,0,5,0,7.5-.01c5.24-.01,10.47-.01,15.71,0c5.36,0,10.73,0,16.09-.02c6.49-.02,12.99-.03,19.48-.03c2.47,0,4.93,0,7.4-.01c3.46-.02,6.92-.01,10.37,0c1.01-.01,2.02-.01,3.06-.02c9.57.07,17.39,2.02,24.97,7.96c1.02.78,2.04,1.57,3.1,2.38.75.68,1.5,1.35,2.27,2.05c0,.66,0,1.32,0,2c.56.24,1.13.48,1.71.73c2.79,1.55,4.73,3.45,6.98,5.71.79.78,1.57,1.57,2.39,2.37c1.92,2.19,1.92,2.19,2.92,5.19-19.44.07-38.87.13-58.31.16-9.02.02-18.05.04-27.07.07-7.87.03-15.74.05-23.61.06-4.16,0-8.32.01-12.49.03-3.92.02-7.84.03-11.77.02-1.43,0-2.87.01-4.31.02-8.73.07-15.71-.03-22.81-5.61-3.25-3.4-3.71-5.07-3.63-9.75c1.58-5.17,3.37-8.15,8-11C-11.98,0.07,-6.38,-0.02,0,0Z" transform="translate(278.009 549.725)" fill="white"/>
  <path d="M0,0c.33,0,.66,0,1,0c.09,21.64.16,43.27.21,64.91.02,10.04.05,20.09.09,30.14.04,8.75.07,17.51.08,26.27c0,4.63.01,9.27.04,13.91.03,4.36.04,8.73.03,13.1c0,1.6.01,3.2.03,4.79.15,17.08.15,17.08-5.96,23.42-4.53,4.01-8.33,4.82-14.17,4.74-4.95-.59-8.19-3.15-11.73-6.59-4-6.63-2.75-15.59-2.73-23.06c0-1.35,0-2.7,0-4.05c0-3.65,0-7.3.01-10.95c0-3.83.01-7.65.01-11.47c0-7.23.01-14.45.02-21.68.01-8.23.01-16.47.02-24.7.01-16.93.03-33.85.05-50.78.66,0,1.32,0,2,0c.33,20.46.66,40.92,1,62c2.64-2.64,5.28-5.28,8-8c2.17-1.73,4.34-3.46,6.55-5.12c3.82-2.93,7.48-6.06,11.16-9.16C-2,66,-2,66,0,66C0,44.22,0,22.44,0,0Z" transform="translate(463 752)" fill="white"/>
  <path d="M0,0c1.26.94,2.53,1.88,3.79,2.83c1.05.78,1.05.78,2.13,1.59c2.97,2.26,5.81,4.65,8.64,7.08.56.48,1.12.95,1.7,1.44c2.95,2.52,5.88,5.06,8.8,7.62c2.67,2.41,2.67,2.41,5.06,3.47C32,25,32,25,33,27c.11,2.53.17,5.04.18,7.57.01,1.17.01,1.17.02,2.36.02,2.59.03,5.18.04,7.77c0,.89.01,1.77.01,2.68.02,4.68.04,9.37.05,14.05.01,4.83.04,9.66.08,14.5.03,3.72.03,7.43.04,11.15c0,1.78.01,3.56.03,5.35.03,2.49.03,4.99.02,7.49.01.73.03,1.46.04,2.22-.05,5.08-1.32,7.94-4.51,11.86-4.51,3.47-8.37,3.63-13.92,3.48-4.92-.77-8.7-2.82-12.08-6.48-3.14-5.87-3.42-10.75-3.34-17.34c0-1.02,0-2.03,0-3.08c0-3.34.02-6.68.05-10.01c0-2.33.01-4.65.01-6.97.01-6.1.04-12.19.07-18.29.03-6.23.05-12.46.06-18.68.04-12.21.09-24.42.15-36.63Z" transform="translate(803 815)" fill="white"/>
  <path d="M0,0c.14,7.48.29,14.97.43,22.45.05,2.54.09,5.08.14,7.62C0.86,44.71,1.1,59.35,1,74c0,.99-.01,1.99-.02,3.01C0.79,94.16,0.79,94.16,-5,100c-4.06,3.7-8.15,4.47-13.51,4.41-4.54-.75-8.23-3.23-11.49-6.41-2.11-4.14-2.24-7.66-2.23-12.27c0-.71,0-1.42,0-2.16c0-2.34.02-4.68.03-7.03.01-1.63.01-3.26.01-4.89.01-4.27.03-8.55.05-12.83.02-4.37.03-8.74.04-13.11.02-8.57.06-17.14.1-25.71.66-.33,1.32-.66,2-1c.33.66.66,1.32,1,2c.37-.4.73-.8,1.11-1.21C-22.48,14.1,-16.34,9.6,-10,5c.73-.56,1.47-1.11,2.22-1.68C-3.35,0,-3.35,0,0,0Z" transform="translate(537 820)" fill="white"/>
  <path d="M0,0C9.45,0,17.56,7.07,24.24,13.21c15.38,15.65,23.9,37.07,24.14,58.85C48.16,82.58,46.37,92.4,42,102c-2.29-3.43-2.22-4.78-2.31-8.81-.82-12.51-5.81-25.5-14.92-34.35-1.39-1.2-2.81-2.37-4.27-3.5-.49-.44-.99-.88-1.5-1.34c0-.66,0-1.32,0-2-.68-.26-1.35-.52-2.05-.78-3.47-1.43-6.84-3.05-10.2-4.72-.64-.31-1.27-.62-1.93-.93C0.12,43.24,0.12,43.24,-1,41c-.1-2.98-.14-5.93-.13-8.91c0-.88,0-1.77-.01-2.67c0-1.87.01-3.74.01-5.61c0-2.86,0-5.73-.01-8.6c0-1.81.01-3.62.01-5.43c0-.87-.01-1.73-.01-2.62C-1.11,1.11,-1.11,1.11,0,0Z" transform="translate(849 373)" fill="white"/>
  <path d="M0,0c.71,14.68,1.15,29.3,1,44-.57.17-1.13.33-1.72.51-5.31,1.65-9.83,3.66-14.47,6.74-.61.4-1.21.8-1.84,1.22C-21.58,55.56,-25.02,58.4,-28,63c-.35.54-.71,1.08-1.07,1.64-1.25,1.92-2.47,3.85-3.68,5.8-.39.62-.78,1.24-1.18,1.88-4.52,7.55-5.38,14.48-5.19,23.18.01,1.23.01,1.23.02,2.49.03,2,.06,4.01.1,6.01-.66-1.32-1.32-2.64-2-4-.66,0-1.32,0-2,0-7.25-21.72-6.17-45.03,3.94-65.56c2.59-5.16,5.5-9.89,9.06-14.44.66,0,1.32,0,2,0c.24-.57.48-1.14.73-1.73C-22.58,9.9,-9.69,0,0,0Z" transform="translate(429 373)" fill="white"/>
  <path d="M0,0C2.46,2.43,4.25,5.03,6,8c.47.78.95,1.57,1.44,2.38.94,4.41.89,8.28-.44,12.62-3.03,4.47-6.51,8.01-11,11-7.75,1.29-17.76,1.67-24.5-2.69-4.31-3.68-6.42-6.98-7.44-12.56-.41-5.32,1.03-9.33,3.94-13.75c8.01-9.05,21.4-11.12,32-5Z" transform="translate(253 630)" fill="white"/>
  <path d="M0,0C4.34,4.54,8.26,9.87,8.38,16.31C8.24,20.98,6.97,24.39,4,28c-.47.58-.93,1.17-1.41,1.77-4.57,4.46-9.41,4.89-15.53,4.98-6.29-.11-11.43-.67-16.42-4.85-3.34-3.87-5.42-7.81-5.79-12.97.47-6.25,3.12-11.85,7.46-16.31C-19.76,-4.17,-8.05,-5.24,0,0Z" transform="translate(1053 630)" fill="white"/>
  <path d="M0,0C2.22,1.05,4.44,2.12,6.65,3.19c.62.29,1.24.59,1.88.89c8.63,4.21,14.7,11.16,19.92,19.13C29,25,29,25,28.32,27C22.41,35.98,11.66,43.55,2,48c-2-2-2-2-2.24-3.99c0-.81.01-1.62.01-2.46c0-.92,0-1.84,0-2.79.01-1,.02-1.99.03-3.02.01-1.02.01-2.03.01-3.08.01-3.26.04-6.52.07-9.78.01-2.21.01-4.42.02-6.63.02-5.41.06-10.83.1-16.25Z" transform="translate(835.782265 472)" fill="white"/>
  <path d="M0,0C0,14.19,0,28.38,0,43c-11.66-3.89-20.23-12.67-29-21c5.66-10.83,12.45-17.3,23.62-22.29C-3,-1,-3,-1,0,0Z" transform="translate(429 476)" fill="white"/>
  <path d="M0,0C4.57,1.48,7.86,4.11,11.5,7.12C18.02,12.39,24.78,16.72,32,21c2.11,1.33,4.21,2.66,6.31,4c.91.58,1.81,1.15,2.74,1.75.64.41,1.29.83,1.95,1.25-3.73,1.19-7.26,1.11-11.16,1.08-.72,0-1.45,0-2.19-.01-2.42-.01-4.84-.03-7.26-.05-1.73-.01-3.47-.02-5.2-.03-4.71-.02-9.42-.06-14.14-.09-4.92-.03-9.84-.06-14.76-.09-9.32-.06-18.64-.12-27.97-.18-10.61-.08-21.22-.14-31.83-.21-21.83-.13-43.66-.27-65.49-.42c0-.33,0-.66,0-1c.67,0,1.34,0,2.03,0c16.28.03,32.56.02,48.85-.03c7.87-.02,15.75-.03,23.62-.01c6.87.01,13.73,0,20.6-.03c3.63-.02,7.27-.03,10.9,0c4.06.02,8.12-.01,12.18-.04c1.2.01,2.4.03,3.64.04c5.62-.09,9.25-.29,13.42-4.3C2.38,17.82,2.43,13.09,2,7C1.49,4.57,0.8,2.36,0,0Z" transform="translate(459 635)" fill="white"/>
  <path d="M0,0c0,3,0,3-1.5,4.69-1.78,2.74-2.1,4.96-1.99,8.22C-2.26,18.16,2.61,22.19,7,25c2.59.46,2.59.46,5.45.4c1.67.02,1.67.02,3.36.04c1.21,0,2.42-.01,3.67-.01c1.28.01,2.56.02,3.87.03c3.5.03,7.01.04,10.51.05c3.66.01,7.32.03,10.98.06c6.93.04,13.86.07,20.79.09c7.89.03,15.79.07,23.68.12c16.23.09,32.46.16,48.69.22c0,.33,0,.66,0,1-59.67,0-119.33,0-179,0c2.67-3.09,5.87-4.69,9.44-6.62c6-3.33,11.36-7.06,16.79-11.26C-5.06,1.69,-5.06,1.69,0,0Z" transform="translate(819 636)" fill="white"/>
  <path d="M0,0C2.04,1.27,4.04,2.61,6,4c0,.66,0,1.32,0,2c.84.36.84.36,1.71.72c2.79,1.56,4.73,3.45,6.98,5.72.79.78,1.57,1.56,2.38,2.37C19,17,19,17,20,20c-49.5,0-99,0-150,0c0-.33,0-.66,0-1c43.89-.33,87.78-.66,133-1-.94-9.13-.94-9.13-3-18Z" transform="translate(396 558)" fill="white"/>
  <path d="M0,0c0,2.98-.48,4.57-1.5,7.31C-2.8,11.03,-3.2,14.04,-3,18c-1,1-1,1-4.82,1.1-1.58-.01-3.16-.02-4.74-.04-.81,0-1.62-.01-2.45-.01C-17,19.04,-19,19.02,-21,19c1.12-3.37,2.07-4.15,4.75-6.38c2.46-2.07,4.74-4.12,7-6.43C-7.17,4.17,-5.62,3.14,-3,2c.99-.66,1.98-1.32,3-2Z" transform="translate(882 559)" fill="white"/>
  <path d="M0,0C5.61,0,11.22,0,17,0c0,2.97,0,5.94,0,9-.66,0-1.32,0-2,0-.33-2.31-.66-4.62-1-7-6.93-.5-6.93-.5-14-1c0-.33,0-.66,0-1Z" transform="translate(415 751)" fill="white"/>
</svg>
